<?xml version="1.0" encoding="utf-8"?>
<svg xmlns="http://www.w3.org/2000/svg" version="1.1" width="1000" height="800">

<polygon points=" 0,0 0,600 1000,600 1000,0" style="fill:rgb(50,200,200)" />
<polygon points=" 0.6,550.6 0.6,599.4 999.4,599.4 999.4,550.6" style="fill:rgb(0,101,200);stroke:rgb(0,250,0);stroke-width:1" />
<polygon points=" 0,0 0,550 25,550 25,0" style="fill:rgb(99,0,0)" />
<polygon points=" 488.6,500.6 488.6,549.4 512.4,549.4 512.4,500.6" style="fill:rgb(180,180,40);stroke:rgb(0,0,0);stroke-width:1" />
<circle cx="500" cy="480" r="19.4" fill="rgb(180,180,40)" />
<circle cx="500" cy="480" r="19.4" fill="none" stroke="rgb(0,0,0)" stroke-width="1" />
<circle cx="493" cy="480" r="5.4" fill="rgb(200,20,20)" />
<circle cx="493" cy="480" r="5.4" fill="none" stroke="rgb(0,0,0)" stroke-width="1" />
<circle cx="507" cy="480" r="5.4" fill="rgb(200,20,20)" />
<circle cx="507" cy="480" r="5.4" fill="none" stroke="rgb(0,0,0)" stroke-width="1" />
<polygon points=" 513.6,510.6 513.6,519.4 537.4,519.4 537.4,510.6" style="fill:rgb(180,180,40);stroke:rgb(0,0,0);stroke-width:1" />
<circle cx="543" cy="515" r="4.4" fill="rgb(220,220,60)" />
<circle cx="543" cy="515" r="4.4" fill="none" stroke="rgb(0,0,0)" stroke-width="1" />
<polygon points=" 463.6,510.6 463.6,519.4 487.4,519.4 487.4,510.6" style="fill:rgb(180,180,40);stroke:rgb(0,0,0);stroke-width:1" />
<circle cx="458" cy="515" r="4.4" fill="rgb(220,220,60)" />
<circle cx="458" cy="515" r="4.4" fill="none" stroke="rgb(0,0,0)" stroke-width="1" />
<polygon points=" 488.6,535.6 488.6,549.4 512.4,549.4 512.4,535.6" style="fill:rgb(220,220,60);stroke:rgb(0,0,0);stroke-width:1" />


</svg>
