<?xml version="1.0" encoding="utf-8"?>
<svg xmlns="http://www.w3.org/2000/svg" version="1.1" width="1000" height="800">

<polygon points=" 0,0 0,600 1000,600 1000,0" style="fill:rgb(196,255,255)" />
<polygon points=" 0,550 0,600 1000,600 1000,550" style="fill:rgb(31,224,36)" />
<polygon points=" 0,0 0,550 25,550 25,0" style="fill:rgb(99,0,0)" />
<polygon points=" 25.6,300.6 25.6,329.4 104.4,329.4 104.4,300.6" style="fill:rgb(128,128,128);stroke:rgb(0,0,0);stroke-width:1" />
<polygon points=" 45.6,285.6 45.6,299.4 59.4,299.4 59.4,285.6" style="fill:rgb(64,0,64);stroke:rgb(0,0,0);stroke-width:1" />
<polygon points=" 42,265 42,285 62,285 62,265" style="fill:rgb(0,128,0)" />
<polygon points=" 720,400 720,550 780,550 780,400" style="fill:rgb(99,0,0)" />
<circle cx="750" cy="350" r="70" fill="rgb(0,128,0)" />
<polygon points=" 188.6,500.6 188.6,549.4 212.4,549.4 212.4,500.6" style="fill:rgb(255,128,64);stroke:rgb(0,0,0);stroke-width:1" />
<circle cx="200" cy="480" r="19.4" fill="rgb(255,128,64)" />
<circle cx="200" cy="480" r="19.4" fill="none" stroke="rgb(0,0,0)" stroke-width="1" />
<circle cx="193" cy="480" r="5.4" fill="rgb(200,20,20)" />
<circle cx="193" cy="480" r="5.4" fill="none" stroke="rgb(0,0,0)" stroke-width="1" />
<circle cx="207" cy="480" r="5.4" fill="rgb(200,20,20)" />
<circle cx="207" cy="480" r="5.4" fill="none" stroke="rgb(0,0,0)" stroke-width="1" />
<polygon points=" 213.6,510.6 213.6,519.4 237.4,519.4 237.4,510.6" style="fill:rgb(255,128,64);stroke:rgb(0,0,0);stroke-width:1" />
<circle cx="243" cy="515" r="4.4" fill="rgb(220,220,60)" />
<circle cx="243" cy="515" r="4.4" fill="none" stroke="rgb(0,0,0)" stroke-width="1" />
<polygon points=" 163.6,510.6 163.6,519.4 187.4,519.4 187.4,510.6" style="fill:rgb(255,128,64);stroke:rgb(0,0,0);stroke-width:1" />
<circle cx="158" cy="515" r="4.4" fill="rgb(220,220,60)" />
<circle cx="158" cy="515" r="4.4" fill="none" stroke="rgb(0,0,0)" stroke-width="1" />
<polygon points=" 188.6,535.6 188.6,549.4 212.4,549.4 212.4,535.6" style="fill:rgb(220,220,60);stroke:rgb(0,0,0);stroke-width:1" />


</svg>
