<?xml version="1.0" encoding="utf-8"?>
<svg xmlns="http://www.w3.org/2000/svg" version="1.1" width="1000" height="800">

<polygon points=" 0,0 0,600 1000,600 1000,0" style="fill:rgb(50,200,200)" />
<polygon points=" 0.6,550.6 0.6,599.4 999.4,599.4 999.4,550.6" style="fill:rgb(0,101,200);stroke:rgb(0,250,0);stroke-width:1" />
<polygon points=" 0,0 0,550 25,550 25,0" style="fill:rgb(99,0,0)" />
<polygon points=" 25,285 25,315 85,315 85,285" style="fill:rgb(100,100,40)" />
<polygon points=" 188.6,500.6 188.6,549.4 212.4,549.4 212.4,500.6" style="fill:rgb(180,180,40);stroke:rgb(0,0,0);stroke-width:1" />
<circle cx="200" cy="480" r="19.4" fill="rgb(180,180,40)" />
<circle cx="200" cy="480" r="19.4" fill="none" stroke="rgb(0,0,0)" stroke-width="1" />
<circle cx="193" cy="480" r="5.4" fill="rgb(200,20,20)" />
<circle cx="193" cy="480" r="5.4" fill="none" stroke="rgb(0,0,0)" stroke-width="1" />
<circle cx="207" cy="480" r="5.4" fill="rgb(200,20,20)" />
<circle cx="207" cy="480" r="5.4" fill="none" stroke="rgb(0,0,0)" stroke-width="1" />
<polygon points=" 213.6,510.6 213.6,519.4 237.4,519.4 237.4,510.6" style="fill:rgb(180,180,40);stroke:rgb(0,0,0);stroke-width:1" />
<circle cx="243" cy="515" r="4.4" fill="rgb(220,220,60)" />
<circle cx="243" cy="515" r="4.4" fill="none" stroke="rgb(0,0,0)" stroke-width="1" />
<polygon points=" 163.6,510.6 163.6,519.4 187.4,519.4 187.4,510.6" style="fill:rgb(180,180,40);stroke:rgb(0,0,0);stroke-width:1" />
<circle cx="158" cy="515" r="4.4" fill="rgb(220,220,60)" />
<circle cx="158" cy="515" r="4.4" fill="none" stroke="rgb(0,0,0)" stroke-width="1" />
<polygon points=" 188.6,535.6 188.6,549.4 212.4,549.4 212.4,535.6" style="fill:rgb(220,220,60);stroke:rgb(0,0,0);stroke-width:1" />
<line x1="494" y1="594" x2="506" y2="606" stroke="black" />
<line x1="494" y1="606" x2="506" y2="594" stroke="black" />
<line x1="496" y1="596" x2="504" y2="604" stroke="red" />
<line x1="496" y1="604" x2="504" y2="596" stroke="red" />
<line x1="-6" y1="544" x2="6" y2="556" stroke="white" />
<line x1="-6" y1="556" x2="6" y2="544" stroke="white" />
<line x1="-4" y1="546" x2="4" y2="554" stroke="red" />
<line x1="-4" y1="554" x2="4" y2="546" stroke="red" />
<line x1="19" y1="494" x2="31" y2="506" stroke="white" />
<line x1="19" y1="506" x2="31" y2="494" stroke="white" />
<line x1="25" y1="300" x2="25" y2="500" stroke="white" />
<line x1="19" y1="294" x2="31" y2="306" stroke="white" />
<line x1="19" y1="306" x2="31" y2="294" stroke="white" />
<line x1="21" y1="296" x2="29" y2="304" stroke="red" />
<line x1="21" y1="304" x2="29" y2="296" stroke="red" />
<line x1="794" y1="544" x2="806" y2="556" stroke="white" />
<line x1="794" y1="556" x2="806" y2="544" stroke="white" />
<line x1="200" y1="550" x2="800" y2="550" stroke="white" />
<line x1="194" y1="544" x2="206" y2="556" stroke="white" />
<line x1="194" y1="556" x2="206" y2="544" stroke="white" />
<line x1="196" y1="546" x2="204" y2="554" stroke="red" />
<line x1="196" y1="554" x2="204" y2="546" stroke="red" />
<line x1="194" y1="494" x2="206" y2="506" stroke="white" />
<line x1="194" y1="506" x2="206" y2="494" stroke="white" />
<line x1="196" y1="496" x2="204" y2="504" stroke="red" />
<line x1="196" y1="504" x2="204" y2="496" stroke="red" />
<line x1="187" y1="474" x2="199" y2="486" stroke="white" />
<line x1="187" y1="486" x2="199" y2="474" stroke="white" />
<line x1="189" y1="476" x2="197" y2="484" stroke="red" />
<line x1="189" y1="484" x2="197" y2="476" stroke="red" />
<line x1="201" y1="474" x2="213" y2="486" stroke="white" />
<line x1="201" y1="486" x2="213" y2="474" stroke="white" />
<line x1="203" y1="476" x2="211" y2="484" stroke="red" />
<line x1="203" y1="484" x2="211" y2="476" stroke="red" />
<line x1="207" y1="509" x2="219" y2="521" stroke="white" />
<line x1="207" y1="521" x2="219" y2="509" stroke="white" />
<line x1="209" y1="511" x2="217" y2="519" stroke="red" />
<line x1="209" y1="519" x2="217" y2="511" stroke="red" />
<line x1="232" y1="509" x2="244" y2="521" stroke="white" />
<line x1="232" y1="521" x2="244" y2="509" stroke="white" />
<line x1="234" y1="511" x2="242" y2="519" stroke="blue" />
<line x1="234" y1="519" x2="242" y2="511" stroke="blue" />
<line x1="182" y1="509" x2="194" y2="521" stroke="white" />
<line x1="182" y1="521" x2="194" y2="509" stroke="white" />
<line x1="184" y1="511" x2="192" y2="519" stroke="red" />
<line x1="184" y1="519" x2="192" y2="511" stroke="red" />
<line x1="157" y1="509" x2="169" y2="521" stroke="white" />
<line x1="157" y1="521" x2="169" y2="509" stroke="white" />
<line x1="159" y1="511" x2="167" y2="519" stroke="blue" />
<line x1="159" y1="519" x2="167" y2="511" stroke="blue" />
<line x1="182" y1="529" x2="194" y2="541" stroke="white" />
<line x1="182" y1="541" x2="194" y2="529" stroke="white" />
<line x1="184" y1="531" x2="192" y2="539" stroke="blue" />
<line x1="184" y1="539" x2="192" y2="531" stroke="blue" />


</svg>
